<?xml version="1.0" encoding="UTF-8" ?>
<!DOCTYPE svg PUBLIC "-//W3C//DTD SVG 1.1//EN" "http://www.w3.org/Graphics/SVG/1.1/DTD/svg11.dtd">
<svg width="180pt" height="180pt" viewBox="0 0 180 180" version="1.1" xmlns="http://www.w3.org/2000/svg">
<path fill="#c6d73a" d=" M 0.00 0.00 L 180.00 0.00 L 180.00 180.00 L 0.00 180.00 L 0.00 0.00 Z" />
<path fill="#fefdf9" d=" M 20.45 63.59 C 29.11 51.27 43.95 43.57 59.00 43.58 C 66.80 44.08 74.69 45.83 81.58 49.63 C 87.74 52.99 92.66 58.11 96.95 63.56 C 97.73 63.55 98.51 63.53 99.28 63.52 C 99.38 62.95 99.58 61.82 99.67 61.26 C 105.39 53.10 114.66 48.17 124.37 46.62 C 128.90 46.15 133.47 46.28 138.02 46.35 C 142.77 46.44 147.12 48.58 151.61 49.88 C 155.56 52.68 160.01 55.00 162.96 58.95 C 166.54 63.33 168.88 68.78 168.79 74.51 C 164.89 75.06 160.96 75.27 157.04 75.41 C 156.01 74.99 154.98 74.56 153.96 74.13 C 153.02 66.10 146.00 59.89 138.19 58.74 C 132.73 58.06 126.90 57.88 121.85 60.42 C 112.90 64.11 108.26 73.80 106.85 82.89 C 105.72 93.48 106.56 105.08 113.05 113.94 C 120.03 123.15 133.51 124.50 143.72 120.55 C 149.11 117.42 153.75 112.03 153.82 105.49 C 158.83 105.41 163.90 104.10 168.86 105.41 C 168.66 107.28 168.51 109.15 168.08 110.98 C 167.12 115.63 163.64 119.28 162.76 123.96 C 162.69 123.27 162.57 121.88 162.51 121.19 C 158.62 128.75 150.01 132.29 142.17 134.19 C 136.06 134.80 129.85 134.76 123.73 134.20 C 110.35 132.06 98.54 122.03 94.44 109.08 C 92.69 103.91 91.97 98.47 91.83 93.03 C 91.73 88.73 92.99 84.40 92.12 80.13 C 89.01 73.86 84.95 67.90 79.46 63.47 C 75.16 60.45 70.32 58.09 65.18 56.93 C 60.49 55.90 55.67 56.49 50.92 56.62 C 45.60 58.67 40.01 60.71 35.96 64.91 C 29.26 71.04 23.96 79.67 24.36 89.02 C 23.73 100.62 29.30 112.54 39.16 118.87 C 48.11 125.69 60.57 126.76 70.99 122.97 C 77.95 120.44 83.57 115.26 88.00 109.45 C 88.29 109.41 88.88 109.34 89.17 109.31 C 90.15 113.92 92.92 117.96 93.49 122.67 C 89.95 125.09 87.11 128.40 83.39 130.57 C 71.74 137.51 57.00 139.96 44.10 135.12 C 31.43 130.90 20.79 121.19 15.63 108.87 C 14.25 105.01 13.11 101.06 11.78 97.18 C 13.63 97.75 13.40 100.26 14.19 101.69 C 14.06 99.05 13.89 96.35 12.41 94.08 C 10.76 83.31 14.38 72.42 20.45 63.59 Z" />
</svg>
